<mxfile host="app.diagrams.net" modified="2023-04-25T04:20:48.557Z" agent="Mozilla/5.0 (Macintosh; Intel Mac OS X 10_15_7) AppleWebKit/605.1.15 (KHTML, like Gecko) Version/16.3 Safari/605.1.15" etag="RD8ZOu8FkDAcktGwN4mI" version="21.2.0" type="device" pages="2">
  <diagram id="3vyr0sJIRpMNw1AXdXsQ" name="Нотация Вороньи лапы">
    <mxGraphModel dx="1111" dy="1823" grid="1" gridSize="10" guides="1" tooltips="1" connect="1" arrows="1" fold="1" page="1" pageScale="1" pageWidth="827" pageHeight="1169" math="0" shadow="0">
      <root>
        <mxCell id="0" />
        <mxCell id="1" parent="0" />
        <mxCell id="11r9th_dJqXvJcnSxwO2-1" value="Заказ" style="swimlane;childLayout=stackLayout;horizontal=1;startSize=30;horizontalStack=0;rounded=1;fontSize=16;fontStyle=0;strokeWidth=2;resizeParent=0;resizeLast=1;shadow=0;dashed=0;align=center;labelBackgroundColor=#FFFFFF;labelBorderColor=none;spacing=3;swimlaneLine=1;" parent="1" vertex="1">
          <mxGeometry x="250" y="-610" width="187.5" height="250" as="geometry">
            <mxRectangle y="-1040" width="80" height="30" as="alternateBounds" />
          </mxGeometry>
        </mxCell>
        <mxCell id="11r9th_dJqXvJcnSxwO2-2" value="* Номер &#xa;Дата заказа &#xa;Количество позиций&#xa;Тип оплаты &#xa;Сумма заказа&#xa;Статус заказа &#xa;Номер телефона &#xa;Фамилия пользователя&#xa;Имя пользователя&#xa;Отчество пользователя&#xa;Электронная почта " style="align=left;strokeColor=none;fillColor=none;spacingLeft=4;fontSize=15;verticalAlign=top;resizable=0;rotatable=0;part=1;labelBackgroundColor=#FFFFFF;labelBorderColor=none;" parent="11r9th_dJqXvJcnSxwO2-1" vertex="1">
          <mxGeometry y="30" width="187.5" height="220" as="geometry" />
        </mxCell>
        <mxCell id="11r9th_dJqXvJcnSxwO2-4" value="Товар" style="swimlane;childLayout=stackLayout;horizontal=1;startSize=30;horizontalStack=0;rounded=1;fontSize=16;fontStyle=0;strokeWidth=2;resizeParent=0;resizeLast=1;shadow=0;dashed=0;align=center;labelBackgroundColor=#FFFFFF;labelBorderColor=none;spacing=3;swimlaneLine=1;" parent="1" vertex="1">
          <mxGeometry x="326" y="-910" width="140" height="160" as="geometry">
            <mxRectangle y="-1040" width="80" height="30" as="alternateBounds" />
          </mxGeometry>
        </mxCell>
        <mxCell id="11r9th_dJqXvJcnSxwO2-5" value="* Артикул&#xa;Название &#xa;Цена &#xa;Описание &#xa;Фотография&#xa;Наличие " style="align=left;strokeColor=none;fillColor=none;spacingLeft=4;fontSize=15;verticalAlign=top;resizable=0;rotatable=0;part=1;labelBackgroundColor=#FFFFFF;labelBorderColor=none;" parent="11r9th_dJqXvJcnSxwO2-4" vertex="1">
          <mxGeometry y="30" width="140" height="130" as="geometry" />
        </mxCell>
        <mxCell id="lABrb7XNlmttFftfzLlV-6" style="edgeStyle=orthogonalEdgeStyle;rounded=0;orthogonalLoop=1;jettySize=auto;html=1;exitX=0.5;exitY=1;exitDx=0;exitDy=0;" edge="1" parent="11r9th_dJqXvJcnSxwO2-4" source="11r9th_dJqXvJcnSxwO2-5" target="11r9th_dJqXvJcnSxwO2-5">
          <mxGeometry relative="1" as="geometry" />
        </mxCell>
        <mxCell id="11r9th_dJqXvJcnSxwO2-8" value="Доставка" style="swimlane;childLayout=stackLayout;horizontal=1;startSize=30;horizontalStack=0;rounded=1;fontSize=16;fontStyle=0;strokeWidth=2;resizeParent=0;resizeLast=1;shadow=0;dashed=0;align=center;labelBackgroundColor=#FFFFFF;labelBorderColor=none;spacing=3;swimlaneLine=1;" parent="1" vertex="1">
          <mxGeometry x="630" y="-610" width="154" height="200" as="geometry">
            <mxRectangle y="-1040" width="80" height="30" as="alternateBounds" />
          </mxGeometry>
        </mxCell>
        <mxCell id="11r9th_dJqXvJcnSxwO2-9" value="*Номер доставки&#xa;Индекс&#xa;Страна &#xa;Город&#xa;Улица &#xa;Дом &#xa;Квартира &#xa;Дата доставки" style="align=left;strokeColor=none;fillColor=none;spacingLeft=4;fontSize=15;verticalAlign=top;resizable=0;rotatable=0;part=1;labelBackgroundColor=#FFFFFF;labelBorderColor=none;" parent="11r9th_dJqXvJcnSxwO2-8" vertex="1">
          <mxGeometry y="30" width="154" height="170" as="geometry" />
        </mxCell>
        <mxCell id="11r9th_dJqXvJcnSxwO2-10" style="edgeStyle=orthogonalEdgeStyle;rounded=0;orthogonalLoop=1;jettySize=auto;html=1;exitX=0.5;exitY=1;exitDx=0;exitDy=0;" parent="11r9th_dJqXvJcnSxwO2-8" source="11r9th_dJqXvJcnSxwO2-9" target="11r9th_dJqXvJcnSxwO2-9" edge="1">
          <mxGeometry relative="1" as="geometry" />
        </mxCell>
        <mxCell id="lABrb7XNlmttFftfzLlV-5" style="edgeStyle=orthogonalEdgeStyle;rounded=0;orthogonalLoop=1;jettySize=auto;html=1;exitX=0.5;exitY=1;exitDx=0;exitDy=0;" edge="1" parent="11r9th_dJqXvJcnSxwO2-8" source="11r9th_dJqXvJcnSxwO2-9" target="11r9th_dJqXvJcnSxwO2-9">
          <mxGeometry relative="1" as="geometry" />
        </mxCell>
        <mxCell id="11r9th_dJqXvJcnSxwO2-12" value="Категория" style="swimlane;childLayout=stackLayout;horizontal=1;startSize=30;horizontalStack=0;rounded=1;fontSize=16;fontStyle=0;strokeWidth=2;resizeParent=0;resizeLast=1;shadow=0;dashed=0;align=center;labelBackgroundColor=#FFFFFF;labelBorderColor=none;spacing=3;swimlaneLine=1;" parent="1" vertex="1">
          <mxGeometry x="41.5" y="-870" width="173" height="120" as="geometry">
            <mxRectangle y="-1040" width="80" height="30" as="alternateBounds" />
          </mxGeometry>
        </mxCell>
        <mxCell id="11r9th_dJqXvJcnSxwO2-13" value="*Номер категории&#xa;Название категории" style="align=left;strokeColor=none;fillColor=none;spacingLeft=4;fontSize=15;verticalAlign=top;resizable=0;rotatable=0;part=1;labelBackgroundColor=#FFFFFF;labelBorderColor=none;" parent="11r9th_dJqXvJcnSxwO2-12" vertex="1">
          <mxGeometry y="30" width="173" height="90" as="geometry" />
        </mxCell>
        <mxCell id="G0K1A2xZ94p5Dyxq99tu-5" value="" style="edgeStyle=entityRelationEdgeStyle;fontSize=12;html=1;endArrow=ERoneToMany;startArrow=ERmandOne;rounded=0;entryX=0;entryY=0.5;entryDx=0;entryDy=0;exitX=1;exitY=0.25;exitDx=0;exitDy=0;strokeWidth=2;endSize=11;startSize=11;startFill=0;" parent="1" source="11r9th_dJqXvJcnSxwO2-2" target="lABrb7XNlmttFftfzLlV-3" edge="1">
          <mxGeometry width="100" height="100" relative="1" as="geometry">
            <mxPoint x="623" y="-430" as="sourcePoint" />
            <mxPoint x="610" y="-657.5" as="targetPoint" />
          </mxGeometry>
        </mxCell>
        <mxCell id="G0K1A2xZ94p5Dyxq99tu-6" value="Содержит" style="edgeLabel;html=1;align=center;verticalAlign=middle;resizable=0;points=[];" parent="G0K1A2xZ94p5Dyxq99tu-5" vertex="1" connectable="0">
          <mxGeometry x="0.1898" y="-2" relative="1" as="geometry">
            <mxPoint x="-7" y="11" as="offset" />
          </mxGeometry>
        </mxCell>
        <mxCell id="G0K1A2xZ94p5Dyxq99tu-7" value="" style="edgeStyle=entityRelationEdgeStyle;fontSize=12;html=1;endArrow=ERzeroToMany;startArrow=ERmandOne;rounded=0;entryX=0;entryY=0.25;entryDx=0;entryDy=0;strokeWidth=2;endSize=11;startSize=11;startFill=0;exitX=1;exitY=0.25;exitDx=0;exitDy=0;endFill=0;" parent="1" source="11r9th_dJqXvJcnSxwO2-5" target="lABrb7XNlmttFftfzLlV-3" edge="1">
          <mxGeometry width="100" height="100" relative="1" as="geometry">
            <mxPoint x="476" y="-710" as="sourcePoint" />
            <mxPoint x="610" y="-712.5" as="targetPoint" />
          </mxGeometry>
        </mxCell>
        <mxCell id="G0K1A2xZ94p5Dyxq99tu-8" value="Находятся" style="edgeLabel;html=1;align=center;verticalAlign=middle;resizable=0;points=[];" parent="G0K1A2xZ94p5Dyxq99tu-7" vertex="1" connectable="0">
          <mxGeometry x="0.1898" y="-2" relative="1" as="geometry">
            <mxPoint x="-7" y="11" as="offset" />
          </mxGeometry>
        </mxCell>
        <mxCell id="G0K1A2xZ94p5Dyxq99tu-11" value="" style="edgeStyle=entityRelationEdgeStyle;fontSize=12;html=1;endArrow=ERzeroToMany;startArrow=ERmandOne;rounded=0;entryX=0;entryY=0.25;entryDx=0;entryDy=0;exitX=1;exitY=0.25;exitDx=0;exitDy=0;strokeWidth=2;endSize=11;startSize=11;" parent="1" source="11r9th_dJqXvJcnSxwO2-13" target="11r9th_dJqXvJcnSxwO2-5" edge="1">
          <mxGeometry width="100" height="100" relative="1" as="geometry">
            <mxPoint x="213" y="-700" as="sourcePoint" />
            <mxPoint x="313" y="-800" as="targetPoint" />
          </mxGeometry>
        </mxCell>
        <mxCell id="G0K1A2xZ94p5Dyxq99tu-12" value="Принадлежит" style="edgeLabel;html=1;align=center;verticalAlign=middle;resizable=0;points=[];" parent="G0K1A2xZ94p5Dyxq99tu-11" vertex="1" connectable="0">
          <mxGeometry x="0.0489" y="-4" relative="1" as="geometry">
            <mxPoint as="offset" />
          </mxGeometry>
        </mxCell>
        <mxCell id="G0K1A2xZ94p5Dyxq99tu-14" value="" style="edgeStyle=entityRelationEdgeStyle;fontSize=12;html=1;endArrow=ERmandOne;endFill=0;startArrow=ERmandOne;rounded=0;entryX=0;entryY=0.25;entryDx=0;entryDy=0;exitX=1;exitY=0.5;exitDx=0;exitDy=0;strokeWidth=2;endSize=11;startSize=11;startFill=0;" parent="1" source="11r9th_dJqXvJcnSxwO2-2" target="11r9th_dJqXvJcnSxwO2-9" edge="1">
          <mxGeometry width="100" height="100" relative="1" as="geometry">
            <mxPoint x="473" y="-490" as="sourcePoint" />
            <mxPoint x="553" y="-630" as="targetPoint" />
          </mxGeometry>
        </mxCell>
        <mxCell id="G0K1A2xZ94p5Dyxq99tu-15" value="Оформляет" style="edgeLabel;html=1;align=center;verticalAlign=middle;resizable=0;points=[];" parent="G0K1A2xZ94p5Dyxq99tu-14" vertex="1" connectable="0">
          <mxGeometry x="0.0412" relative="1" as="geometry">
            <mxPoint as="offset" />
          </mxGeometry>
        </mxCell>
        <mxCell id="lABrb7XNlmttFftfzLlV-2" value="Корзина" style="swimlane;childLayout=stackLayout;horizontal=1;startSize=30;horizontalStack=0;rounded=1;fontSize=16;fontStyle=0;strokeWidth=2;resizeParent=0;resizeLast=1;shadow=0;dashed=0;align=center;labelBackgroundColor=#FFFFFF;labelBorderColor=none;spacing=3;swimlaneLine=1;" vertex="1" parent="1">
          <mxGeometry x="620" y="-770" width="170" height="110" as="geometry">
            <mxRectangle y="-1040" width="80" height="30" as="alternateBounds" />
          </mxGeometry>
        </mxCell>
        <mxCell id="lABrb7XNlmttFftfzLlV-3" value="* Номер &#xa;* Артикул&#xa;Количество товара " style="align=left;strokeColor=none;fillColor=none;spacingLeft=4;fontSize=15;verticalAlign=top;resizable=0;rotatable=0;part=1;labelBackgroundColor=#FFFFFF;labelBorderColor=none;" vertex="1" parent="lABrb7XNlmttFftfzLlV-2">
          <mxGeometry y="30" width="170" height="80" as="geometry" />
        </mxCell>
        <mxCell id="lABrb7XNlmttFftfzLlV-4" style="edgeStyle=orthogonalEdgeStyle;rounded=0;orthogonalLoop=1;jettySize=auto;html=1;exitX=0.5;exitY=1;exitDx=0;exitDy=0;" edge="1" parent="lABrb7XNlmttFftfzLlV-2" source="lABrb7XNlmttFftfzLlV-3" target="lABrb7XNlmttFftfzLlV-3">
          <mxGeometry relative="1" as="geometry" />
        </mxCell>
        <mxCell id="lABrb7XNlmttFftfzLlV-7" value="" style="edgeStyle=entityRelationEdgeStyle;fontSize=12;html=1;endArrow=ERmandOne;endFill=0;startArrow=ERmandOne;rounded=0;entryX=0;entryY=0.25;entryDx=0;entryDy=0;exitX=1;exitY=0.75;exitDx=0;exitDy=0;strokeWidth=2;endSize=11;startSize=11;startFill=0;" edge="1" parent="1" source="11r9th_dJqXvJcnSxwO2-2" target="lABrb7XNlmttFftfzLlV-10">
          <mxGeometry width="100" height="100" relative="1" as="geometry">
            <mxPoint x="440" y="-410" as="sourcePoint" />
            <mxPoint x="552" y="-372" as="targetPoint" />
          </mxGeometry>
        </mxCell>
        <mxCell id="lABrb7XNlmttFftfzLlV-8" value="Формирует" style="edgeLabel;html=1;align=center;verticalAlign=middle;resizable=0;points=[];" vertex="1" connectable="0" parent="lABrb7XNlmttFftfzLlV-7">
          <mxGeometry x="0.0412" relative="1" as="geometry">
            <mxPoint as="offset" />
          </mxGeometry>
        </mxCell>
        <mxCell id="lABrb7XNlmttFftfzLlV-9" value="Чек" style="swimlane;childLayout=stackLayout;horizontal=1;startSize=30;horizontalStack=0;rounded=1;fontSize=16;fontStyle=0;strokeWidth=2;resizeParent=0;resizeLast=1;shadow=0;dashed=0;align=center;labelBackgroundColor=#FFFFFF;labelBorderColor=none;spacing=3;swimlaneLine=1;" vertex="1" parent="1">
          <mxGeometry x="600" y="-380" width="130" height="130" as="geometry">
            <mxRectangle y="-1040" width="80" height="30" as="alternateBounds" />
          </mxGeometry>
        </mxCell>
        <mxCell id="lABrb7XNlmttFftfzLlV-10" value="*Номер чека&#xa;Способ оплаты&#xa;Дата оплаты&#xa;Статус чека" style="align=left;strokeColor=none;fillColor=none;spacingLeft=4;fontSize=15;verticalAlign=top;resizable=0;rotatable=0;part=1;labelBackgroundColor=#FFFFFF;labelBorderColor=none;" vertex="1" parent="lABrb7XNlmttFftfzLlV-9">
          <mxGeometry y="30" width="130" height="100" as="geometry" />
        </mxCell>
        <mxCell id="lABrb7XNlmttFftfzLlV-11" style="edgeStyle=orthogonalEdgeStyle;rounded=0;orthogonalLoop=1;jettySize=auto;html=1;exitX=0.5;exitY=1;exitDx=0;exitDy=0;" edge="1" parent="lABrb7XNlmttFftfzLlV-9" source="lABrb7XNlmttFftfzLlV-10" target="lABrb7XNlmttFftfzLlV-10">
          <mxGeometry relative="1" as="geometry" />
        </mxCell>
        <mxCell id="lABrb7XNlmttFftfzLlV-12" style="edgeStyle=orthogonalEdgeStyle;rounded=0;orthogonalLoop=1;jettySize=auto;html=1;exitX=0.5;exitY=1;exitDx=0;exitDy=0;" edge="1" parent="lABrb7XNlmttFftfzLlV-9" source="lABrb7XNlmttFftfzLlV-10" target="lABrb7XNlmttFftfzLlV-10">
          <mxGeometry relative="1" as="geometry" />
        </mxCell>
      </root>
    </mxGraphModel>
  </diagram>
  <diagram name="Нотация Чена" id="7jsEuZoLYIzX6B_10Qmq">
    <mxGraphModel dx="1452" dy="2024" grid="1" gridSize="10" guides="1" tooltips="1" connect="1" arrows="1" fold="1" page="1" pageScale="1" pageWidth="827" pageHeight="1169" math="0" shadow="0">
      <root>
        <mxCell id="0" />
        <mxCell id="1" parent="0" />
        <mxCell id="EMUlkYxfVmFJpi6f1ZmC-2" value="&lt;font style=&quot;font-size: 18px;&quot;&gt;Заказ&lt;/font&gt;" style="rounded=0;whiteSpace=wrap;html=1;labelBackgroundColor=#E6E6E6;labelBorderColor=none;fontSize=30;strokeWidth=1;" vertex="1" parent="1">
          <mxGeometry x="395" y="-331" width="130" height="60" as="geometry" />
        </mxCell>
        <mxCell id="EMUlkYxfVmFJpi6f1ZmC-54" style="rounded=0;orthogonalLoop=1;jettySize=auto;html=1;exitX=0;exitY=0.25;exitDx=0;exitDy=0;entryX=1;entryY=0.5;entryDx=0;entryDy=0;strokeColor=default;endArrow=none;endFill=0;" edge="1" parent="1" source="EMUlkYxfVmFJpi6f1ZmC-4" target="EMUlkYxfVmFJpi6f1ZmC-14">
          <mxGeometry relative="1" as="geometry" />
        </mxCell>
        <mxCell id="EMUlkYxfVmFJpi6f1ZmC-55" style="rounded=0;orthogonalLoop=1;jettySize=auto;html=1;exitX=0.5;exitY=0;exitDx=0;exitDy=0;endArrow=none;endFill=0;" edge="1" parent="1" source="EMUlkYxfVmFJpi6f1ZmC-4" target="EMUlkYxfVmFJpi6f1ZmC-11">
          <mxGeometry relative="1" as="geometry" />
        </mxCell>
        <mxCell id="EMUlkYxfVmFJpi6f1ZmC-56" style="rounded=0;orthogonalLoop=1;jettySize=auto;html=1;exitX=0.75;exitY=0;exitDx=0;exitDy=0;entryX=0.5;entryY=1;entryDx=0;entryDy=0;endArrow=none;endFill=0;" edge="1" parent="1" source="EMUlkYxfVmFJpi6f1ZmC-4" target="EMUlkYxfVmFJpi6f1ZmC-10">
          <mxGeometry relative="1" as="geometry" />
        </mxCell>
        <mxCell id="EMUlkYxfVmFJpi6f1ZmC-57" style="rounded=0;orthogonalLoop=1;jettySize=auto;html=1;exitX=1;exitY=0.25;exitDx=0;exitDy=0;entryX=0;entryY=0.5;entryDx=0;entryDy=0;endArrow=none;endFill=0;" edge="1" parent="1" source="EMUlkYxfVmFJpi6f1ZmC-4" target="EMUlkYxfVmFJpi6f1ZmC-6">
          <mxGeometry relative="1" as="geometry" />
        </mxCell>
        <mxCell id="EMUlkYxfVmFJpi6f1ZmC-58" style="rounded=0;orthogonalLoop=1;jettySize=auto;html=1;exitX=1;exitY=0.5;exitDx=0;exitDy=0;entryX=0;entryY=0.5;entryDx=0;entryDy=0;endArrow=none;endFill=0;" edge="1" parent="1" source="EMUlkYxfVmFJpi6f1ZmC-4" target="EMUlkYxfVmFJpi6f1ZmC-7">
          <mxGeometry relative="1" as="geometry" />
        </mxCell>
        <mxCell id="EMUlkYxfVmFJpi6f1ZmC-59" style="rounded=0;orthogonalLoop=1;jettySize=auto;html=1;exitX=1;exitY=0.75;exitDx=0;exitDy=0;entryX=0;entryY=0.5;entryDx=0;entryDy=0;endArrow=none;endFill=0;" edge="1" parent="1" source="EMUlkYxfVmFJpi6f1ZmC-4" target="EMUlkYxfVmFJpi6f1ZmC-8">
          <mxGeometry relative="1" as="geometry" />
        </mxCell>
        <mxCell id="EMUlkYxfVmFJpi6f1ZmC-4" value="&lt;font style=&quot;font-size: 18px;&quot;&gt;Товар&lt;/font&gt;" style="rounded=0;whiteSpace=wrap;html=1;labelBackgroundColor=#E6E6E6;labelBorderColor=none;fontSize=30;strokeWidth=1;" vertex="1" parent="1">
          <mxGeometry x="410" y="-720" width="90" height="50.5" as="geometry" />
        </mxCell>
        <mxCell id="EMUlkYxfVmFJpi6f1ZmC-6" value="&lt;font style=&quot;font-size: 18px;&quot;&gt;Название&amp;nbsp;&lt;/font&gt;" style="ellipse;whiteSpace=wrap;html=1;labelBackgroundColor=#E6E6E6;labelBorderColor=none;fontSize=30;strokeWidth=1;" vertex="1" parent="1">
          <mxGeometry x="550" y="-770" width="130" height="50" as="geometry" />
        </mxCell>
        <mxCell id="EMUlkYxfVmFJpi6f1ZmC-7" value="&lt;font style=&quot;font-size: 18px;&quot;&gt;Описание &amp;nbsp;&lt;/font&gt;" style="ellipse;whiteSpace=wrap;html=1;labelBackgroundColor=#E6E6E6;labelBorderColor=none;fontSize=30;strokeWidth=1;" vertex="1" parent="1">
          <mxGeometry x="590" y="-719.75" width="130" height="50" as="geometry" />
        </mxCell>
        <mxCell id="EMUlkYxfVmFJpi6f1ZmC-8" value="&lt;font style=&quot;font-size: 18px;&quot;&gt;Наличие&amp;nbsp;&lt;/font&gt;" style="ellipse;whiteSpace=wrap;html=1;labelBackgroundColor=#E6E6E6;labelBorderColor=none;fontSize=30;strokeWidth=1;" vertex="1" parent="1">
          <mxGeometry x="610" y="-669.5" width="130" height="50" as="geometry" />
        </mxCell>
        <mxCell id="EMUlkYxfVmFJpi6f1ZmC-9" value="&lt;font style=&quot;font-size: 18px;&quot;&gt;Фотография&lt;/font&gt;" style="ellipse;whiteSpace=wrap;html=1;labelBackgroundColor=#E6E6E6;labelBorderColor=none;fontSize=30;strokeWidth=1;" vertex="1" parent="1">
          <mxGeometry x="600" y="-609" width="130" height="50" as="geometry" />
        </mxCell>
        <mxCell id="EMUlkYxfVmFJpi6f1ZmC-10" value="&lt;font style=&quot;font-size: 18px;&quot;&gt;Цена&amp;nbsp;&lt;/font&gt;" style="ellipse;whiteSpace=wrap;html=1;labelBackgroundColor=#E6E6E6;labelBorderColor=none;fontSize=30;strokeWidth=1;" vertex="1" parent="1">
          <mxGeometry x="470" y="-820" width="130" height="50" as="geometry" />
        </mxCell>
        <mxCell id="EMUlkYxfVmFJpi6f1ZmC-11" value="&lt;font style=&quot;font-size: 18px;&quot;&gt;&lt;u&gt;Артикул&lt;/u&gt;&lt;/font&gt;" style="ellipse;whiteSpace=wrap;html=1;labelBackgroundColor=#E6E6E6;labelBorderColor=none;fontSize=30;strokeWidth=1;" vertex="1" parent="1">
          <mxGeometry x="340" y="-830" width="130" height="50" as="geometry" />
        </mxCell>
        <mxCell id="EMUlkYxfVmFJpi6f1ZmC-14" value="&lt;font size=&quot;4&quot;&gt;Категория&lt;/font&gt;" style="ellipse;whiteSpace=wrap;html=1;labelBackgroundColor=#E6E6E6;labelBorderColor=none;fontSize=30;strokeWidth=1;" vertex="1" parent="1">
          <mxGeometry x="220" y="-760" width="150" height="50" as="geometry" />
        </mxCell>
        <mxCell id="EMUlkYxfVmFJpi6f1ZmC-16" value="&lt;font style=&quot;font-size: 18px;&quot;&gt;Одежда&lt;/font&gt;" style="ellipse;whiteSpace=wrap;html=1;labelBackgroundColor=#E6E6E6;labelBorderColor=none;fontSize=30;strokeWidth=1;" vertex="1" parent="1">
          <mxGeometry x="70" y="-700" width="130" height="50" as="geometry" />
        </mxCell>
        <mxCell id="EMUlkYxfVmFJpi6f1ZmC-17" value="&lt;font style=&quot;font-size: 18px;&quot;&gt;Амуниция&lt;/font&gt;" style="ellipse;whiteSpace=wrap;html=1;labelBackgroundColor=#E6E6E6;labelBorderColor=none;fontSize=30;strokeWidth=1;" vertex="1" parent="1">
          <mxGeometry x="70" y="-770" width="130" height="50" as="geometry" />
        </mxCell>
        <mxCell id="EMUlkYxfVmFJpi6f1ZmC-18" value="&lt;font style=&quot;font-size: 18px;&quot;&gt;Аксессуары&lt;/font&gt;" style="ellipse;whiteSpace=wrap;html=1;labelBackgroundColor=#E6E6E6;labelBorderColor=none;fontSize=30;strokeWidth=1;" vertex="1" parent="1">
          <mxGeometry x="110" y="-840" width="130" height="50" as="geometry" />
        </mxCell>
        <mxCell id="EMUlkYxfVmFJpi6f1ZmC-19" value="&lt;font style=&quot;font-size: 18px;&quot;&gt;Полезные мелочи&lt;/font&gt;" style="ellipse;whiteSpace=wrap;html=1;labelBackgroundColor=#E6E6E6;labelBorderColor=none;fontSize=30;strokeWidth=1;" vertex="1" parent="1">
          <mxGeometry x="170" y="-920" width="160" height="70" as="geometry" />
        </mxCell>
        <mxCell id="EMUlkYxfVmFJpi6f1ZmC-20" value="&lt;font style=&quot;font-size: 14px;&quot;&gt;Данные&amp;nbsp;пользователя&lt;/font&gt;" style="ellipse;whiteSpace=wrap;html=1;labelBackgroundColor=#E6E6E6;labelBorderColor=none;fontSize=30;strokeWidth=1;" vertex="1" parent="1">
          <mxGeometry x="595" y="-410" width="160" height="59" as="geometry" />
        </mxCell>
        <mxCell id="EMUlkYxfVmFJpi6f1ZmC-21" value="&lt;font style=&quot;font-size: 18px;&quot;&gt;ФИО&lt;/font&gt;" style="ellipse;whiteSpace=wrap;html=1;labelBackgroundColor=#E6E6E6;labelBorderColor=none;fontSize=30;strokeWidth=1;" vertex="1" parent="1">
          <mxGeometry x="730" y="-510" width="120" height="39" as="geometry" />
        </mxCell>
        <mxCell id="EMUlkYxfVmFJpi6f1ZmC-22" value="&lt;font style=&quot;font-size: 18px;&quot;&gt;Адрес&lt;/font&gt;" style="ellipse;whiteSpace=wrap;html=1;labelBackgroundColor=#E6E6E6;labelBorderColor=none;fontSize=30;strokeWidth=1;" vertex="1" parent="1">
          <mxGeometry x="780" y="-460" width="130" height="40" as="geometry" />
        </mxCell>
        <mxCell id="EMUlkYxfVmFJpi6f1ZmC-23" value="&lt;font style=&quot;font-size: 18px;&quot;&gt;&lt;u&gt;Телефон&lt;/u&gt;&lt;/font&gt;" style="ellipse;whiteSpace=wrap;html=1;labelBackgroundColor=#E6E6E6;labelBorderColor=none;fontSize=30;strokeWidth=1;" vertex="1" parent="1">
          <mxGeometry x="780" y="-390" width="120" height="39" as="geometry" />
        </mxCell>
        <mxCell id="EMUlkYxfVmFJpi6f1ZmC-24" value="&lt;font style=&quot;font-size: 18px;&quot;&gt;Почта&lt;/font&gt;" style="ellipse;whiteSpace=wrap;html=1;labelBackgroundColor=#E6E6E6;labelBorderColor=none;fontSize=30;strokeWidth=1;" vertex="1" parent="1">
          <mxGeometry x="750" y="-320" width="140" height="59" as="geometry" />
        </mxCell>
        <mxCell id="EMUlkYxfVmFJpi6f1ZmC-25" value="&lt;font style=&quot;font-size: 14px;&quot;&gt;Кол-во товара&lt;/font&gt;" style="ellipse;whiteSpace=wrap;html=1;labelBackgroundColor=#E6E6E6;labelBorderColor=none;fontSize=30;strokeWidth=1;" vertex="1" parent="1">
          <mxGeometry x="200" y="-370" width="130" height="48" as="geometry" />
        </mxCell>
        <mxCell id="EMUlkYxfVmFJpi6f1ZmC-70" style="rounded=0;orthogonalLoop=1;jettySize=auto;html=1;exitX=1;exitY=0;exitDx=0;exitDy=0;entryX=0;entryY=0.5;entryDx=0;entryDy=0;endArrow=none;endFill=0;" edge="1" parent="1" source="EMUlkYxfVmFJpi6f1ZmC-26" target="EMUlkYxfVmFJpi6f1ZmC-28">
          <mxGeometry relative="1" as="geometry" />
        </mxCell>
        <mxCell id="EMUlkYxfVmFJpi6f1ZmC-26" value="&lt;font style=&quot;font-size: 14px;&quot;&gt;Доставка&lt;/font&gt;" style="ellipse;whiteSpace=wrap;html=1;labelBackgroundColor=#E6E6E6;labelBorderColor=none;fontSize=30;strokeWidth=1;" vertex="1" parent="1">
          <mxGeometry x="520" y="-190" width="140" height="50" as="geometry" />
        </mxCell>
        <mxCell id="EMUlkYxfVmFJpi6f1ZmC-28" value="&lt;font style=&quot;font-size: 14px;&quot;&gt;Индекс&lt;/font&gt;" style="ellipse;whiteSpace=wrap;html=1;labelBackgroundColor=#E6E6E6;labelBorderColor=none;fontSize=30;strokeWidth=1;" vertex="1" parent="1">
          <mxGeometry x="710" y="-230" width="110" height="30" as="geometry" />
        </mxCell>
        <mxCell id="EMUlkYxfVmFJpi6f1ZmC-29" value="&lt;font style=&quot;font-size: 14px;&quot;&gt;Страна&amp;nbsp;&lt;/font&gt;" style="ellipse;whiteSpace=wrap;html=1;labelBackgroundColor=#E6E6E6;labelBorderColor=none;fontSize=30;strokeWidth=1;" vertex="1" parent="1">
          <mxGeometry x="750" y="-180" width="110" height="30" as="geometry" />
        </mxCell>
        <mxCell id="EMUlkYxfVmFJpi6f1ZmC-30" value="&lt;font style=&quot;font-size: 14px;&quot;&gt;Город&lt;/font&gt;" style="ellipse;whiteSpace=wrap;html=1;labelBackgroundColor=#E6E6E6;labelBorderColor=none;fontSize=30;strokeWidth=1;" vertex="1" parent="1">
          <mxGeometry x="700" y="-140" width="110" height="30" as="geometry" />
        </mxCell>
        <mxCell id="EMUlkYxfVmFJpi6f1ZmC-31" value="&lt;font style=&quot;font-size: 14px;&quot;&gt;Улица&lt;/font&gt;" style="ellipse;whiteSpace=wrap;html=1;labelBackgroundColor=#E6E6E6;labelBorderColor=none;fontSize=30;strokeWidth=1;" vertex="1" parent="1">
          <mxGeometry x="640" y="-100" width="110" height="30" as="geometry" />
        </mxCell>
        <mxCell id="EMUlkYxfVmFJpi6f1ZmC-32" value="&lt;font style=&quot;font-size: 14px;&quot;&gt;Дом&lt;/font&gt;" style="ellipse;whiteSpace=wrap;html=1;labelBackgroundColor=#E6E6E6;labelBorderColor=none;fontSize=30;strokeWidth=1;" vertex="1" parent="1">
          <mxGeometry x="520" y="-80" width="110" height="30" as="geometry" />
        </mxCell>
        <mxCell id="EMUlkYxfVmFJpi6f1ZmC-33" value="&lt;font style=&quot;font-size: 14px;&quot;&gt;Квартира&lt;/font&gt;" style="ellipse;whiteSpace=wrap;html=1;labelBackgroundColor=#E6E6E6;labelBorderColor=none;fontSize=30;strokeWidth=1;" vertex="1" parent="1">
          <mxGeometry x="390" y="-80" width="110" height="30" as="geometry" />
        </mxCell>
        <mxCell id="EMUlkYxfVmFJpi6f1ZmC-34" value="&lt;font style=&quot;font-size: 14px;&quot;&gt;Оплата на сайте&lt;/font&gt;" style="ellipse;whiteSpace=wrap;html=1;labelBackgroundColor=#E6E6E6;labelBorderColor=none;fontSize=30;strokeWidth=1;" vertex="1" parent="1">
          <mxGeometry x="210" y="-290" width="130" height="48" as="geometry" />
        </mxCell>
        <mxCell id="EMUlkYxfVmFJpi6f1ZmC-35" value="Состоит" style="shape=associativeEntity;whiteSpace=wrap;html=1;align=center;" vertex="1" parent="1">
          <mxGeometry x="390" y="-550" width="140" height="60" as="geometry" />
        </mxCell>
        <mxCell id="EMUlkYxfVmFJpi6f1ZmC-48" value="" style="endArrow=none;html=1;rounded=0;exitX=0.5;exitY=1;exitDx=0;exitDy=0;entryX=0.5;entryY=0;entryDx=0;entryDy=0;" edge="1" parent="1" source="EMUlkYxfVmFJpi6f1ZmC-4" target="EMUlkYxfVmFJpi6f1ZmC-35">
          <mxGeometry relative="1" as="geometry">
            <mxPoint x="280" y="-450" as="sourcePoint" />
            <mxPoint x="470" y="-500" as="targetPoint" />
          </mxGeometry>
        </mxCell>
        <mxCell id="EMUlkYxfVmFJpi6f1ZmC-49" value="M" style="resizable=0;html=1;whiteSpace=wrap;align=left;verticalAlign=bottom;" connectable="0" vertex="1" parent="EMUlkYxfVmFJpi6f1ZmC-48">
          <mxGeometry x="-1" relative="1" as="geometry">
            <mxPoint y="20" as="offset" />
          </mxGeometry>
        </mxCell>
        <mxCell id="EMUlkYxfVmFJpi6f1ZmC-50" value="" style="resizable=0;html=1;whiteSpace=wrap;align=right;verticalAlign=bottom;" connectable="0" vertex="1" parent="EMUlkYxfVmFJpi6f1ZmC-48">
          <mxGeometry x="1" relative="1" as="geometry" />
        </mxCell>
        <mxCell id="EMUlkYxfVmFJpi6f1ZmC-51" value="" style="endArrow=none;html=1;rounded=0;entryX=0.5;entryY=0;entryDx=0;entryDy=0;exitX=0.5;exitY=1;exitDx=0;exitDy=0;" edge="1" parent="1" source="EMUlkYxfVmFJpi6f1ZmC-35" target="EMUlkYxfVmFJpi6f1ZmC-2">
          <mxGeometry relative="1" as="geometry">
            <mxPoint x="280" y="-450" as="sourcePoint" />
            <mxPoint x="440" y="-450" as="targetPoint" />
          </mxGeometry>
        </mxCell>
        <mxCell id="EMUlkYxfVmFJpi6f1ZmC-52" value="" style="resizable=0;html=1;whiteSpace=wrap;align=left;verticalAlign=bottom;" connectable="0" vertex="1" parent="EMUlkYxfVmFJpi6f1ZmC-51">
          <mxGeometry x="-1" relative="1" as="geometry" />
        </mxCell>
        <mxCell id="EMUlkYxfVmFJpi6f1ZmC-53" value="N" style="resizable=0;html=1;whiteSpace=wrap;align=right;verticalAlign=bottom;" connectable="0" vertex="1" parent="EMUlkYxfVmFJpi6f1ZmC-51">
          <mxGeometry x="1" relative="1" as="geometry" />
        </mxCell>
        <mxCell id="EMUlkYxfVmFJpi6f1ZmC-60" style="rounded=0;orthogonalLoop=1;jettySize=auto;html=1;exitX=1;exitY=1;exitDx=0;exitDy=0;entryX=0;entryY=0.5;entryDx=0;entryDy=0;endArrow=none;endFill=0;" edge="1" parent="1" source="EMUlkYxfVmFJpi6f1ZmC-4" target="EMUlkYxfVmFJpi6f1ZmC-9">
          <mxGeometry relative="1" as="geometry">
            <mxPoint x="510" y="-672" as="sourcePoint" />
            <mxPoint x="620" y="-634" as="targetPoint" />
          </mxGeometry>
        </mxCell>
        <mxCell id="EMUlkYxfVmFJpi6f1ZmC-61" style="rounded=0;orthogonalLoop=1;jettySize=auto;html=1;exitX=0;exitY=1;exitDx=0;exitDy=0;endArrow=none;endFill=0;entryX=1;entryY=0.5;entryDx=0;entryDy=0;" edge="1" parent="1" source="EMUlkYxfVmFJpi6f1ZmC-14" target="EMUlkYxfVmFJpi6f1ZmC-16">
          <mxGeometry relative="1" as="geometry">
            <mxPoint x="465" y="-710" as="sourcePoint" />
            <mxPoint x="429" y="-771" as="targetPoint" />
          </mxGeometry>
        </mxCell>
        <mxCell id="EMUlkYxfVmFJpi6f1ZmC-62" style="rounded=0;orthogonalLoop=1;jettySize=auto;html=1;exitX=0;exitY=0.5;exitDx=0;exitDy=0;endArrow=none;endFill=0;entryX=1;entryY=0.5;entryDx=0;entryDy=0;" edge="1" parent="1" source="EMUlkYxfVmFJpi6f1ZmC-14" target="EMUlkYxfVmFJpi6f1ZmC-17">
          <mxGeometry relative="1" as="geometry">
            <mxPoint x="252" y="-707" as="sourcePoint" />
            <mxPoint x="210" y="-665" as="targetPoint" />
          </mxGeometry>
        </mxCell>
        <mxCell id="EMUlkYxfVmFJpi6f1ZmC-63" style="rounded=0;orthogonalLoop=1;jettySize=auto;html=1;endArrow=none;endFill=0;entryX=1;entryY=1;entryDx=0;entryDy=0;exitX=0;exitY=0;exitDx=0;exitDy=0;" edge="1" parent="1" source="EMUlkYxfVmFJpi6f1ZmC-14" target="EMUlkYxfVmFJpi6f1ZmC-18">
          <mxGeometry relative="1" as="geometry">
            <mxPoint x="250" y="-750" as="sourcePoint" />
            <mxPoint x="220" y="-655" as="targetPoint" />
          </mxGeometry>
        </mxCell>
        <mxCell id="EMUlkYxfVmFJpi6f1ZmC-64" style="rounded=0;orthogonalLoop=1;jettySize=auto;html=1;exitX=0.5;exitY=0;exitDx=0;exitDy=0;endArrow=none;endFill=0;entryX=0.5;entryY=1;entryDx=0;entryDy=0;" edge="1" parent="1" source="EMUlkYxfVmFJpi6f1ZmC-14" target="EMUlkYxfVmFJpi6f1ZmC-19">
          <mxGeometry relative="1" as="geometry">
            <mxPoint x="272" y="-687" as="sourcePoint" />
            <mxPoint x="230" y="-645" as="targetPoint" />
          </mxGeometry>
        </mxCell>
        <mxCell id="EMUlkYxfVmFJpi6f1ZmC-65" style="rounded=0;orthogonalLoop=1;jettySize=auto;html=1;exitX=0;exitY=0.5;exitDx=0;exitDy=0;endArrow=none;endFill=0;entryX=1;entryY=0.25;entryDx=0;entryDy=0;" edge="1" parent="1" source="EMUlkYxfVmFJpi6f1ZmC-20" target="EMUlkYxfVmFJpi6f1ZmC-2">
          <mxGeometry relative="1" as="geometry">
            <mxPoint x="282" y="-677" as="sourcePoint" />
            <mxPoint x="240" y="-635" as="targetPoint" />
          </mxGeometry>
        </mxCell>
        <mxCell id="EMUlkYxfVmFJpi6f1ZmC-66" style="rounded=0;orthogonalLoop=1;jettySize=auto;html=1;exitX=0;exitY=0.5;exitDx=0;exitDy=0;endArrow=none;endFill=0;entryX=0.5;entryY=0;entryDx=0;entryDy=0;" edge="1" parent="1" source="EMUlkYxfVmFJpi6f1ZmC-21" target="EMUlkYxfVmFJpi6f1ZmC-20">
          <mxGeometry relative="1" as="geometry">
            <mxPoint x="292" y="-667" as="sourcePoint" />
            <mxPoint x="250" y="-625" as="targetPoint" />
          </mxGeometry>
        </mxCell>
        <mxCell id="EMUlkYxfVmFJpi6f1ZmC-67" style="rounded=0;orthogonalLoop=1;jettySize=auto;html=1;exitX=0;exitY=0.5;exitDx=0;exitDy=0;endArrow=none;endFill=0;entryX=1;entryY=0;entryDx=0;entryDy=0;" edge="1" parent="1" source="EMUlkYxfVmFJpi6f1ZmC-22" target="EMUlkYxfVmFJpi6f1ZmC-20">
          <mxGeometry relative="1" as="geometry">
            <mxPoint x="740" y="-480" as="sourcePoint" />
            <mxPoint x="685" y="-400" as="targetPoint" />
          </mxGeometry>
        </mxCell>
        <mxCell id="EMUlkYxfVmFJpi6f1ZmC-68" style="rounded=0;orthogonalLoop=1;jettySize=auto;html=1;exitX=0;exitY=0.5;exitDx=0;exitDy=0;endArrow=none;endFill=0;entryX=1;entryY=0.5;entryDx=0;entryDy=0;" edge="1" parent="1" source="EMUlkYxfVmFJpi6f1ZmC-23" target="EMUlkYxfVmFJpi6f1ZmC-20">
          <mxGeometry relative="1" as="geometry">
            <mxPoint x="750" y="-470" as="sourcePoint" />
            <mxPoint x="695" y="-390" as="targetPoint" />
          </mxGeometry>
        </mxCell>
        <mxCell id="EMUlkYxfVmFJpi6f1ZmC-69" style="rounded=0;orthogonalLoop=1;jettySize=auto;html=1;exitX=0;exitY=0;exitDx=0;exitDy=0;endArrow=none;endFill=0;entryX=0.5;entryY=1;entryDx=0;entryDy=0;" edge="1" parent="1" source="EMUlkYxfVmFJpi6f1ZmC-24" target="EMUlkYxfVmFJpi6f1ZmC-20">
          <mxGeometry relative="1" as="geometry">
            <mxPoint x="760" y="-460" as="sourcePoint" />
            <mxPoint x="705" y="-380" as="targetPoint" />
          </mxGeometry>
        </mxCell>
        <mxCell id="EMUlkYxfVmFJpi6f1ZmC-71" style="rounded=0;orthogonalLoop=1;jettySize=auto;html=1;exitX=1;exitY=0.5;exitDx=0;exitDy=0;entryX=0;entryY=0.5;entryDx=0;entryDy=0;endArrow=none;endFill=0;" edge="1" parent="1" source="EMUlkYxfVmFJpi6f1ZmC-26" target="EMUlkYxfVmFJpi6f1ZmC-29">
          <mxGeometry relative="1" as="geometry">
            <mxPoint x="649" y="-173" as="sourcePoint" />
            <mxPoint x="720" y="-205" as="targetPoint" />
          </mxGeometry>
        </mxCell>
        <mxCell id="EMUlkYxfVmFJpi6f1ZmC-72" style="rounded=0;orthogonalLoop=1;jettySize=auto;html=1;exitX=1;exitY=1;exitDx=0;exitDy=0;entryX=0;entryY=0.5;entryDx=0;entryDy=0;endArrow=none;endFill=0;" edge="1" parent="1" source="EMUlkYxfVmFJpi6f1ZmC-26" target="EMUlkYxfVmFJpi6f1ZmC-30">
          <mxGeometry relative="1" as="geometry">
            <mxPoint x="659" y="-163" as="sourcePoint" />
            <mxPoint x="730" y="-195" as="targetPoint" />
          </mxGeometry>
        </mxCell>
        <mxCell id="EMUlkYxfVmFJpi6f1ZmC-73" style="rounded=0;orthogonalLoop=1;jettySize=auto;html=1;exitX=0.5;exitY=1;exitDx=0;exitDy=0;entryX=0;entryY=0;entryDx=0;entryDy=0;endArrow=none;endFill=0;" edge="1" parent="1" source="EMUlkYxfVmFJpi6f1ZmC-26" target="EMUlkYxfVmFJpi6f1ZmC-31">
          <mxGeometry relative="1" as="geometry">
            <mxPoint x="669" y="-153" as="sourcePoint" />
            <mxPoint x="740" y="-185" as="targetPoint" />
          </mxGeometry>
        </mxCell>
        <mxCell id="EMUlkYxfVmFJpi6f1ZmC-74" style="rounded=0;orthogonalLoop=1;jettySize=auto;html=1;exitX=0;exitY=1;exitDx=0;exitDy=0;entryX=0.5;entryY=0;entryDx=0;entryDy=0;endArrow=none;endFill=0;" edge="1" parent="1" source="EMUlkYxfVmFJpi6f1ZmC-26" target="EMUlkYxfVmFJpi6f1ZmC-32">
          <mxGeometry relative="1" as="geometry">
            <mxPoint x="679" y="-143" as="sourcePoint" />
            <mxPoint x="750" y="-175" as="targetPoint" />
          </mxGeometry>
        </mxCell>
        <mxCell id="EMUlkYxfVmFJpi6f1ZmC-75" style="rounded=0;orthogonalLoop=1;jettySize=auto;html=1;exitX=0.5;exitY=0;exitDx=0;exitDy=0;entryX=0;entryY=0.5;entryDx=0;entryDy=0;endArrow=none;endFill=0;" edge="1" parent="1" source="EMUlkYxfVmFJpi6f1ZmC-33" target="EMUlkYxfVmFJpi6f1ZmC-26">
          <mxGeometry relative="1" as="geometry">
            <mxPoint x="689" y="-133" as="sourcePoint" />
            <mxPoint x="760" y="-165" as="targetPoint" />
          </mxGeometry>
        </mxCell>
        <mxCell id="EMUlkYxfVmFJpi6f1ZmC-76" style="rounded=0;orthogonalLoop=1;jettySize=auto;html=1;entryX=0.75;entryY=1;entryDx=0;entryDy=0;endArrow=none;endFill=0;" edge="1" parent="1" source="EMUlkYxfVmFJpi6f1ZmC-26" target="EMUlkYxfVmFJpi6f1ZmC-2">
          <mxGeometry relative="1" as="geometry">
            <mxPoint x="699" y="-123" as="sourcePoint" />
            <mxPoint x="770" y="-155" as="targetPoint" />
          </mxGeometry>
        </mxCell>
        <mxCell id="EMUlkYxfVmFJpi6f1ZmC-77" style="rounded=0;orthogonalLoop=1;jettySize=auto;html=1;endArrow=none;endFill=0;exitX=1;exitY=0.5;exitDx=0;exitDy=0;entryX=0;entryY=0;entryDx=0;entryDy=0;" edge="1" parent="1" source="EMUlkYxfVmFJpi6f1ZmC-25" target="EMUlkYxfVmFJpi6f1ZmC-2">
          <mxGeometry relative="1" as="geometry">
            <mxPoint x="578" y="-179" as="sourcePoint" />
            <mxPoint x="410" y="-300" as="targetPoint" />
          </mxGeometry>
        </mxCell>
        <mxCell id="EMUlkYxfVmFJpi6f1ZmC-78" value="&lt;font style=&quot;font-size: 14px;&quot;&gt;Оплата курьеру&lt;/font&gt;" style="ellipse;whiteSpace=wrap;html=1;labelBackgroundColor=#E6E6E6;labelBorderColor=none;fontSize=30;strokeWidth=1;" vertex="1" parent="1">
          <mxGeometry x="265" y="-200" width="130" height="48" as="geometry" />
        </mxCell>
        <mxCell id="EMUlkYxfVmFJpi6f1ZmC-79" style="rounded=0;orthogonalLoop=1;jettySize=auto;html=1;entryX=0.423;entryY=1.017;entryDx=0;entryDy=0;endArrow=none;endFill=0;exitX=0.5;exitY=0;exitDx=0;exitDy=0;entryPerimeter=0;" edge="1" parent="1" source="EMUlkYxfVmFJpi6f1ZmC-78" target="EMUlkYxfVmFJpi6f1ZmC-2">
          <mxGeometry relative="1" as="geometry">
            <mxPoint x="430" y="-180" as="sourcePoint" />
            <mxPoint x="503" y="-261" as="targetPoint" />
          </mxGeometry>
        </mxCell>
        <mxCell id="EMUlkYxfVmFJpi6f1ZmC-80" style="rounded=0;orthogonalLoop=1;jettySize=auto;html=1;entryX=0;entryY=0.5;entryDx=0;entryDy=0;endArrow=none;endFill=0;exitX=1;exitY=0.5;exitDx=0;exitDy=0;" edge="1" parent="1" source="EMUlkYxfVmFJpi6f1ZmC-34" target="EMUlkYxfVmFJpi6f1ZmC-2">
          <mxGeometry relative="1" as="geometry">
            <mxPoint x="340" y="-190" as="sourcePoint" />
            <mxPoint x="460" y="-260" as="targetPoint" />
          </mxGeometry>
        </mxCell>
        <mxCell id="EMUlkYxfVmFJpi6f1ZmC-81" value="&lt;font style=&quot;font-size: 14px;&quot;&gt;&lt;u&gt;Номер&lt;/u&gt;&lt;/font&gt;" style="ellipse;whiteSpace=wrap;html=1;labelBackgroundColor=#E6E6E6;labelBorderColor=none;fontSize=30;strokeWidth=1;" vertex="1" parent="1">
          <mxGeometry x="260" y="-440" width="130" height="48" as="geometry" />
        </mxCell>
        <mxCell id="rNeERNDPJ7x9afCxZFGW-1" style="rounded=0;orthogonalLoop=1;jettySize=auto;html=1;endArrow=none;endFill=0;exitX=1;exitY=1;exitDx=0;exitDy=0;entryX=0.25;entryY=0;entryDx=0;entryDy=0;" edge="1" parent="1" source="EMUlkYxfVmFJpi6f1ZmC-81" target="EMUlkYxfVmFJpi6f1ZmC-2">
          <mxGeometry relative="1" as="geometry">
            <mxPoint x="340" y="-336" as="sourcePoint" />
            <mxPoint x="405" y="-321" as="targetPoint" />
          </mxGeometry>
        </mxCell>
        <mxCell id="ov0MmIrttK7LTgG39Dp1-1" value="Заказ" style="swimlane;childLayout=stackLayout;horizontal=1;startSize=30;horizontalStack=0;rounded=1;fontSize=16;fontStyle=0;strokeWidth=2;resizeParent=0;resizeLast=1;shadow=0;dashed=0;align=center;labelBackgroundColor=#FFFFFF;labelBorderColor=none;spacing=3;swimlaneLine=1;" vertex="1" parent="1">
          <mxGeometry x="980" y="-400" width="190" height="370" as="geometry">
            <mxRectangle y="-1040" width="80" height="30" as="alternateBounds" />
          </mxGeometry>
        </mxCell>
        <mxCell id="ov0MmIrttK7LTgG39Dp1-2" value="* Номер &#xa;Кол-во товара&#xa;Оплата на сайте &#xa;Оплата курьеру&#xa;Индекс&#xa;Страна &#xa;Город&#xa;Улица &#xa;Дом &#xa;Квартира &#xa;Фамилия &#xa;Имя&#xa;Отчество &#xa;Адрес &#xa;Телефон &#xa;Электронная почта &#xa;&#xa;" style="align=left;strokeColor=none;fillColor=none;spacingLeft=4;fontSize=15;verticalAlign=top;resizable=0;rotatable=0;part=1;labelBackgroundColor=#FFFFFF;labelBorderColor=none;" vertex="1" parent="ov0MmIrttK7LTgG39Dp1-1">
          <mxGeometry y="30" width="190" height="340" as="geometry" />
        </mxCell>
        <mxCell id="ov0MmIrttK7LTgG39Dp1-3" style="edgeStyle=orthogonalEdgeStyle;rounded=0;orthogonalLoop=1;jettySize=auto;html=1;exitX=0.5;exitY=1;exitDx=0;exitDy=0;" edge="1" parent="ov0MmIrttK7LTgG39Dp1-1" source="ov0MmIrttK7LTgG39Dp1-2" target="ov0MmIrttK7LTgG39Dp1-2">
          <mxGeometry relative="1" as="geometry" />
        </mxCell>
        <mxCell id="ov0MmIrttK7LTgG39Dp1-5" value="Товар" style="swimlane;childLayout=stackLayout;horizontal=1;startSize=30;horizontalStack=0;rounded=1;fontSize=16;fontStyle=0;strokeWidth=2;resizeParent=0;resizeLast=1;shadow=0;dashed=0;align=center;labelBackgroundColor=#FFFFFF;labelBorderColor=none;spacing=3;swimlaneLine=1;" vertex="1" parent="1">
          <mxGeometry x="980" y="-710" width="160" height="255" as="geometry">
            <mxRectangle y="-1040" width="80" height="30" as="alternateBounds" />
          </mxGeometry>
        </mxCell>
        <mxCell id="ov0MmIrttK7LTgG39Dp1-6" value="* Артикул&#xa;Название &#xa;Цена &#xa;Описание &#xa;Фотография&#xa;Наличие &#xa;Одежда &#xa;Амуниция &#xa;Аксессуары &#xa;Полезные мелочи &#xa;&#xa;" style="align=left;strokeColor=none;fillColor=none;spacingLeft=4;fontSize=15;verticalAlign=top;resizable=0;rotatable=0;part=1;labelBackgroundColor=#FFFFFF;labelBorderColor=none;" vertex="1" parent="ov0MmIrttK7LTgG39Dp1-5">
          <mxGeometry y="30" width="160" height="225" as="geometry" />
        </mxCell>
      </root>
    </mxGraphModel>
  </diagram>
</mxfile>
